<?xml version="1.0" encoding="UTF-8"?>
<svg xmlns="http://www.w3.org/2000/svg" xmlns:xlink="http://www.w3.org/1999/xlink" id="Layer_2" data-name="Layer 2" viewBox="0 0 340.17 124.16">
  <defs>
    <style>
      .cls-1 {
        fill: #fff;
      }

      .cls-2 {
        clip-path: url(#clippath);
      }

      .cls-3 {
        fill: none;
      }
    </style>
    <clipPath id="clippath">
      <rect class="cls-3" x="46.88" y="87.76" width="30.83" height="8.45"></rect>
    </clipPath>
  </defs>
  <g id="Logo">
    <g>
      <circle class="cls-1" cx="62.08" cy="62.08" r="62.08"></circle>
      <path d="m62.08,83.12c-16.81,0-29.98-12.98-29.98-29.56s13.45-29.98,29.98-29.98,29.98,13.45,29.98,29.98-13.17,29.56-29.98,29.56Zm0-51.1c-11.88,0-21.54,9.66-21.54,21.54s9.46,21.12,21.54,21.12,21.54-9.28,21.54-21.12-9.66-21.54-21.54-21.54Z"></path>
      <g class="cls-2">
        <rect x="44.76" y="85.65" width="35.05" height="12.67"></rect>
      </g>
      <path class="cls-1" d="m145.65,58.74c.39-.88.92-1.64,1.59-2.29.67-.65,1.45-1.15,2.34-1.51.89-.36,1.83-.54,2.82-.54s1.93.18,2.82.54c.89.36,1.67.86,2.35,1.51.68.65,1.22,1.41,1.61,2.29.39.88.59,1.84.59,2.87s-.2,2-.59,2.87c-.39.88-.93,1.64-1.61,2.29-.68.65-1.47,1.15-2.35,1.51-.89.36-1.83.54-2.82.54s-1.93-.18-2.82-.54c-.89-.36-1.67-.86-2.34-1.51-.67-.65-1.2-1.41-1.59-2.29-.39-.88-.59-1.84-.59-2.87s.2-2,.59-2.87h0Zm-6.61,8.29c.72,1.67,1.71,3.13,2.98,4.38,1.27,1.25,2.79,2.22,4.55,2.93,1.77.7,3.71,1.06,5.83,1.06s4.04-.35,5.82-1.06c1.78-.7,3.31-1.68,4.59-2.93,1.28-1.25,2.28-2.71,3-4.38.72-1.67,1.07-3.48,1.07-5.42s-.36-3.75-1.07-5.42c-.72-1.67-1.71-3.13-3-4.38s-2.81-2.22-4.59-2.93c-1.78-.7-3.72-1.06-5.82-1.06s-4.07.35-5.83,1.06c-1.77.7-3.28,1.68-4.55,2.93-1.27,1.25-2.26,2.71-2.98,4.38-.72,1.67-1.07,3.48-1.07,5.42s.36,3.75,1.07,5.42h0Z"></path>
      <path class="cls-1" d="m177.55,74.67v-15.96l12.54,15.96h6.75v-26.11h-6.75v15.96l-12.54-15.96h-6.79v26.11h6.79Zm41.94-10.8h1.49c1.71,0,2.93.22,3.67.66.74.44,1.11,1.14,1.11,2.11s-.37,1.67-1.11,2.11c-.74.44-1.96.66-3.67.66h-1.49v-5.54h0Zm0-10.11h1.25c2.12,0,3.19.84,3.19,2.53s-1.06,2.53-3.19,2.53h-1.25v-5.06h0Zm-6.79,20.92h10.91c1.39,0,2.63-.16,3.74-.48,1.11-.32,2.05-.81,2.82-1.45.77-.65,1.37-1.44,1.8-2.39.43-.95.64-2.03.64-3.26,0-.78-.09-1.52-.28-2.22-.19-.69-.49-1.32-.92-1.87-.43-.55-.98-1.02-1.66-1.4-.68-.38-1.51-.66-2.48-.85.97-.6,1.69-1.33,2.16-2.2.47-.87.71-1.96.71-3.27,0-2.17-.62-3.83-1.87-4.99-1.25-1.15-3.07-1.73-5.47-1.73h-10.11v26.11h0Zm29.78-15.93c.39-.88.92-1.64,1.59-2.29.67-.65,1.45-1.15,2.34-1.51.89-.36,1.83-.54,2.82-.54s1.93.18,2.82.54c.89.36,1.67.86,2.35,1.51.68.65,1.22,1.41,1.61,2.29.39.88.59,1.84.59,2.87s-.2,2-.59,2.87c-.39.88-.93,1.64-1.61,2.29-.68.65-1.47,1.15-2.35,1.51-.89.36-1.83.54-2.82.54s-1.93-.18-2.82-.54c-.89-.36-1.67-.86-2.34-1.51-.67-.65-1.2-1.41-1.59-2.29-.39-.88-.59-1.84-.59-2.87s.2-2,.59-2.87h0Zm-6.61,8.29c.72,1.67,1.71,3.13,2.98,4.38,1.27,1.25,2.79,2.22,4.55,2.93,1.77.7,3.71,1.06,5.83,1.06s4.04-.35,5.82-1.06c1.78-.7,3.31-1.68,4.59-2.93,1.28-1.25,2.28-2.71,3-4.38.72-1.67,1.07-3.48,1.07-5.42s-.36-3.75-1.07-5.42c-.72-1.67-1.71-3.13-3-4.38-1.28-1.25-2.81-2.22-4.59-2.93-1.78-.7-3.72-1.06-5.82-1.06s-4.07.35-5.83,1.06c-1.77.7-3.28,1.68-4.55,2.93-1.27,1.25-2.26,2.71-2.98,4.38-.72,1.67-1.07,3.48-1.07,5.42s.36,3.75,1.07,5.42h0Z"></path>
      <path class="cls-1" d="m274.45,64.98l3.05-8.69,3.05,8.69h-6.09Zm9.45,9.7h7.24l-9.94-26.11h-7.41l-9.94,26.11h7.24l1.56-4.54h9.7l1.56,4.54h0Zm16.31-20.88h1.28c1.34,0,2.37.28,3.08.83.72.55,1.07,1.35,1.07,2.39s-.36,1.84-1.07,2.39c-.72.55-1.74.83-3.08.83h-1.28v-6.44h0Zm6.72,10.18c1.87-.44,3.28-1.28,4.24-2.51.96-1.23,1.44-2.84,1.44-4.83,0-1.11-.18-2.15-.54-3.12-.36-.97-.89-1.82-1.59-2.56-.7-.74-1.6-1.32-2.68-1.75-1.09-.43-2.35-.64-3.81-.64h-10.56v26.11h6.79v-10.04l6.48,10.04h8.45l-8.21-10.7h0Zm17.14-9.66h1.56c1.15,0,2.19.19,3.12.55.92.37,1.7.88,2.34,1.52.63.65,1.13,1.42,1.47,2.32.35.9.52,1.87.52,2.91s-.17,2.04-.5,2.93c-.33.89-.82,1.66-1.45,2.3-.64.65-1.41,1.15-2.34,1.52-.92.37-1.97.55-3.15.55h-1.56v-14.61h0Zm-6.79,20.36h10.04c1.8,0,3.48-.36,5.04-1.07,1.56-.72,2.92-1.67,4.09-2.87,1.17-1.2,2.08-2.59,2.74-4.17.66-1.58.99-3.23.99-4.93s-.33-3.39-1-4.97c-.67-1.58-1.59-2.97-2.75-4.16-1.17-1.19-2.53-2.14-4.09-2.86-1.56-.72-3.23-1.07-5-1.07h-10.04v26.11h0Z"></path>
    </g>
  </g>
</svg>
